<svg width="24" height="22" viewBox="0 0 24 22" fill="none" xmlns="http://www.w3.org/2000/svg">
<path d="M6.31739 1.37237e-07H12.1826C13.135 -6.05917e-06 13.8956 -1.10082e-05 14.5099 0.050176C15.1399 0.10165 15.6818 0.209634 16.1795 0.463223C16.9791 0.870685 17.6293 1.52085 18.0368 2.32054C18.2904 2.81824 18.3983 3.36012 18.4498 3.99013C18.5 4.60438 18.5 5.3649 18.5 6.3173V7.75C18.5 8.16421 18.1642 8.5 17.75 8.5C17.3358 8.5 17 8.16421 17 7.75V6.35C17 5.35753 16.9994 4.65829 16.9548 4.11228C16.9109 3.57503 16.8282 3.25252 16.7003 3.00153C16.4366 2.48408 16.0159 2.06338 15.4985 1.79973C15.2475 1.67184 14.925 1.58909 14.3877 1.54519C13.8417 1.50058 13.1425 1.5 12.15 1.5H6.35C5.35753 1.5 4.65829 1.50058 4.11228 1.54519C3.57503 1.58909 3.25252 1.67184 3.00153 1.79973C2.48408 2.06338 2.06338 2.48408 1.79973 3.00153C1.67184 3.25252 1.58909 3.57503 1.54519 4.11228C1.50058 4.65829 1.5 5.35753 1.5 6.35V15.15C1.5 16.1425 1.50058 16.8417 1.54519 17.3877C1.58909 17.925 1.67184 18.2475 1.79973 18.4985C2.06338 19.0159 2.48408 19.4366 3.00153 19.7003C3.25252 19.8282 3.57503 19.9109 4.11228 19.9548C4.65829 19.9994 5.35753 20 6.35 20H11.5046C11.9188 20 12.2546 20.3358 12.2546 20.75C12.2546 21.1642 11.9188 21.5 11.5046 21.5H6.31737C5.36497 21.5 4.60438 21.5 3.99013 21.4498C3.36012 21.3983 2.81824 21.2904 2.32054 21.0368C1.52085 20.6293 0.870685 19.9791 0.463223 19.1795C0.209634 18.6818 0.10165 18.1399 0.050176 17.5099C-1.10082e-05 16.8956 -6.05917e-06 16.1351 1.37237e-07 15.1826V6.31739C-6.05917e-06 5.36495 -1.10082e-05 4.60439 0.050176 3.99013C0.10165 3.36012 0.209634 2.81824 0.463223 2.32054C0.870685 1.52085 1.52085 0.870685 2.32054 0.463223C2.81824 0.209634 3.36012 0.10165 3.99013 0.050176C4.60439 -1.10082e-05 5.36495 -6.05917e-06 6.31739 1.37237e-07Z" fill="#37C390"/>
<path d="M4.5 6.75C4.5 6.33579 4.83579 6 5.25 6H9.25C9.66421 6 10 6.33579 10 6.75C10 7.16421 9.66421 7.5 9.25 7.5H5.25C4.83579 7.5 4.5 7.16421 4.5 6.75Z" fill="#37C390"/>
<path d="M4.5 10.75C4.5 10.3358 4.83579 10 5.25 10H11.5046C11.9188 10 12.2546 10.3358 12.2546 10.75C12.2546 11.1642 11.9188 11.5 11.5046 11.5H5.25C4.83579 11.5 4.5 11.1642 4.5 10.75Z" fill="#37C390"/>
<path d="M4.5 14.75C4.5 14.3358 4.83579 14 5.25 14H9.81189C10.2261 14 10.5619 14.3358 10.5619 14.75C10.5619 15.1642 10.2261 15.5 9.81189 15.5H5.25C4.83579 15.5 4.5 15.1642 4.5 14.75Z" fill="#37C390"/>
<path d="M20.1919 14.0581C20.436 14.3021 20.436 14.6979 20.1919 14.9419L17.6919 17.4419C17.5744 17.5595 17.4149 17.6253 17.2487 17.625C17.0825 17.6247 16.9233 17.5581 16.8063 17.4401L15.3063 15.9278C15.0632 15.6827 15.0648 15.287 15.3099 15.0439C15.5549 14.8008 15.9507 14.8025 16.1937 15.0475L17.2518 16.1143L19.3081 14.0581C19.5521 13.814 19.9479 13.814 20.1919 14.0581Z" fill="#37C390"/>
<path fill-rule="evenodd" clip-rule="evenodd" d="M12 15.75C12 12.5744 14.5744 10 17.75 10C20.9256 10 23.5 12.5744 23.5 15.75C23.5 18.9256 20.9256 21.5 17.75 21.5C14.5744 21.5 12 18.9256 12 15.75ZM17.75 11.5C15.4028 11.5 13.5 13.4028 13.5 15.75C13.5 18.0972 15.4028 20 17.75 20C20.0972 20 22 18.0972 22 15.75C22 13.4028 20.0972 11.5 17.75 11.5Z" fill="#37C390"/>
</svg>
