<svg width="22" height="22" viewBox="0 0 22 22" fill="none" xmlns="http://www.w3.org/2000/svg">
<path d="M12.1826 1.37237e-07H6.31739C5.36495 -6.05917e-06 4.60439 -1.10082e-05 3.99013 0.050176C3.36012 0.10165 2.81824 0.209634 2.32054 0.463223C1.52085 0.870685 0.870685 1.52085 0.463223 2.32054C0.209634 2.81824 0.10165 3.36012 0.050176 3.99013C-1.10082e-05 4.60439 -6.05917e-06 5.36494 1.37237e-07 6.31738V15.1826C-6.05917e-06 16.135 -1.10082e-05 16.8956 0.050176 17.5099C0.10165 18.1399 0.209634 18.6818 0.463223 19.1795C0.870685 19.9791 1.52085 20.6293 2.32054 21.0368C2.81824 21.2904 3.36012 21.3983 3.99013 21.4498C4.60438 21.5 5.3649 21.5 6.31731 21.5H12.1513C12.5656 21.5 12.9013 21.1642 12.9013 20.75C12.9013 20.3358 12.5652 20 12.151 20H6.35C5.35753 20 4.65829 19.9994 4.11228 19.9548C3.57503 19.9109 3.25252 19.8282 3.00153 19.7003C2.48408 19.4366 2.06338 19.0159 1.79973 18.4985C1.67184 18.2475 1.58909 17.925 1.54519 17.3877C1.50058 16.8417 1.5 16.1425 1.5 15.15V6.35C1.5 5.35753 1.50058 4.65829 1.54519 4.11228C1.58909 3.57503 1.67184 3.25252 1.79973 3.00153C2.06338 2.48408 2.48408 2.06338 3.00153 1.79973C3.25252 1.67184 3.57503 1.58909 4.11228 1.54519C4.65829 1.50058 5.35753 1.5 6.35 1.5H12.15C13.1425 1.5 13.8417 1.50058 14.3877 1.54519C14.925 1.58909 15.2475 1.67184 15.4985 1.79973C16.0159 2.06338 16.4366 2.48408 16.7003 3.00153C16.8282 3.25252 16.9109 3.57503 16.9548 4.11228C16.9994 4.65829 17 5.35753 17 6.35V11.75C17 12.1642 17.3358 12.5 17.75 12.5C18.1642 12.5 18.5 12.1642 18.5 11.75V6.31737C18.5 5.36496 18.5 4.60438 18.4498 3.99013C18.3983 3.36012 18.2904 2.81824 18.0368 2.32054C17.6293 1.52085 16.9791 0.870685 16.1795 0.463223C15.6818 0.209634 15.1399 0.10165 14.5099 0.050176C13.8956 -1.10082e-05 13.135 -6.05917e-06 12.1826 1.37237e-07Z" fill="#4A88EE"/>
<path d="M5.25 6C4.83579 6 4.5 6.33579 4.5 6.75C4.5 7.16421 4.83579 7.5 5.25 7.5H9.25C9.66421 7.5 10 7.16421 10 6.75C10 6.33579 9.66421 6 9.25 6H5.25Z" fill="#4A88EE"/>
<path d="M5.25 10C4.83579 10 4.5 10.3358 4.5 10.75C4.5 11.1642 4.83579 11.5 5.25 11.5H13.25C13.6642 11.5 14 11.1642 14 10.75C14 10.3358 13.6642 10 13.25 10H5.25Z" fill="#4A88EE"/>
<path d="M5.25 14C4.83579 14 4.5 14.3358 4.5 14.75C4.5 15.1642 4.83579 15.5 5.25 15.5L11.75 15.5C12.1642 15.5 12.5 15.1642 12.5 14.75C12.5 14.3358 12.1642 14 11.75 14L5.25 14Z" fill="#4A88EE"/>
<path d="M14 14.75C14 14.3358 14.3358 14 14.75 14H19.25C19.6642 14 20 14.3358 20 14.75C20 15.1642 19.6642 15.5 19.25 15.5H16.5607L21.2803 20.2197C21.5732 20.5126 21.5732 20.9874 21.2803 21.2803C20.9874 21.5732 20.5126 21.5732 20.2197 21.2803L15.5 16.5607V19.25C15.5 19.6642 15.1642 20 14.75 20C14.3358 20 14 19.6642 14 19.25V14.75Z" fill="#4A88EE"/>
</svg>
