<svg width="23" height="21" viewBox="0 0 23 21" fill="none" xmlns="http://www.w3.org/2000/svg">
<path d="M11.9224 4.4135e-08H6.07755C5.11647 -2.8465e-06 4.36451 -5.10737e-06 3.76049 0.0493453C3.14594 0.0995563 2.64062 0.203335 2.18404 0.435974C1.43139 0.819468 0.819468 1.43139 0.435974 2.18404C0.203335 2.64062 0.0995563 3.14594 0.0493453 3.76049C-5.10737e-06 4.36451 -2.8465e-06 5.11646 4.41348e-08 6.07755V14.9224C-2.8465e-06 15.8835 -5.10737e-06 16.6355 0.0493453 17.2395C0.0995563 17.8541 0.203335 18.3594 0.435974 18.816C0.819467 19.5686 1.43139 20.1805 2.18404 20.564C2.64062 20.7967 3.14594 20.9004 3.76049 20.9507C4.36451 21 5.11646 21 6.07754 21H11.2546C11.5308 21 11.7546 20.7761 11.7546 20.5C11.7546 20.2239 11.5308 20 11.2546 20H6.1C5.11166 20 4.40047 19.9996 3.84192 19.954C3.28921 19.9088 2.93014 19.8219 2.63803 19.673C2.07354 19.3854 1.6146 18.9265 1.32698 18.362C1.17814 18.0699 1.09118 17.7108 1.04602 17.1581C1.00039 16.5995 1 15.8883 1 14.9V6.1C1 5.11166 1.00039 4.40047 1.04602 3.84192C1.09118 3.28921 1.17814 2.93014 1.32698 2.63803C1.6146 2.07354 2.07354 1.6146 2.63803 1.32698C2.93014 1.17814 3.28921 1.09118 3.84192 1.04602C4.40047 1.00039 5.11166 1 6.1 1H11.9C12.8883 1 13.5995 1.00039 14.1581 1.04602C14.7108 1.09118 15.0699 1.17814 15.362 1.32698C15.9265 1.6146 16.3854 2.07354 16.673 2.63803C16.8219 2.93014 16.9088 3.28921 16.954 3.84192C16.9996 4.40047 17 5.11166 17 6.1V7.5C17 7.77614 17.2239 8 17.5 8C17.7761 8 18 7.77614 18 7.5V6.07754C18 5.11646 18 4.36451 17.9507 3.76049C17.9004 3.14594 17.7967 2.64062 17.564 2.18404C17.1805 1.43139 16.5686 0.819467 15.816 0.435974C15.3594 0.203335 14.8541 0.0995563 14.2395 0.0493453C13.6355 -5.10737e-06 12.8835 -2.8465e-06 11.9224 4.4135e-08Z" fill="#F87653"/>
<path d="M5 6C4.72386 6 4.5 6.22386 4.5 6.5C4.5 6.77614 4.72386 7 5 7H9C9.27614 7 9.5 6.77614 9.5 6.5C9.5 6.22386 9.27614 6 9 6H5Z" fill="#F87653"/>
<path d="M5 10C4.72386 10 4.5 10.2239 4.5 10.5C4.5 10.7761 4.72386 11 5 11H11.2546C11.5308 11 11.7546 10.7761 11.7546 10.5C11.7546 10.2239 11.5308 10 11.2546 10H5Z" fill="#F87653"/>
<path d="M5 14C4.72386 14 4.5 14.2239 4.5 14.5C4.5 14.7761 4.72386 15 5 15H9.56189C9.83804 15 10.0619 14.7761 10.0619 14.5C10.0619 14.2239 9.83804 14 9.56189 14H5Z" fill="#F87653"/>
<path d="M18 13C18 12.7239 17.7761 12.5 17.5 12.5C17.2239 12.5 17 12.7239 17 13V15.5001C17 15.6672 17.0836 15.8234 17.2227 15.9161L18.7227 16.916C18.9524 17.0692 19.2629 17.0071 19.416 16.7773C19.5692 16.5476 19.5071 16.2371 19.2773 16.084L18 15.2325V13Z" fill="#F87653"/>
<path fill-rule="evenodd" clip-rule="evenodd" d="M12 15.5C12 12.4624 14.4624 10 17.5 10C20.5376 10 23 12.4624 23 15.5C23 18.5376 20.5376 21 17.5 21C14.4624 21 12 18.5376 12 15.5ZM17.5 11C15.0147 11 13 13.0147 13 15.5C13 17.9853 15.0147 20 17.5 20C19.9853 20 22 17.9853 22 15.5C22 13.0147 19.9853 11 17.5 11Z" fill="#F87653"/>
</svg>
