<svg width="23" height="21" viewBox="0 0 23 21" fill="none" xmlns="http://www.w3.org/2000/svg">
<path d="M6.07755 4.4135e-08H11.9224C12.8835 -2.8465e-06 13.6355 -5.10737e-06 14.2395 0.0493453C14.8541 0.0995563 15.3594 0.203335 15.816 0.435974C16.5686 0.819467 17.1805 1.43139 17.564 2.18404C17.7967 2.64062 17.9004 3.14594 17.9507 3.76049C18 4.36451 18 5.11646 18 6.07754V7.5C18 7.77614 17.7761 8 17.5 8C17.2239 8 17 7.77614 17 7.5V6.1C17 5.11166 16.9996 4.40047 16.954 3.84192C16.9088 3.28921 16.8219 2.93014 16.673 2.63803C16.3854 2.07354 15.9265 1.6146 15.362 1.32698C15.0699 1.17814 14.7108 1.09118 14.1581 1.04602C13.5995 1.00039 12.8883 1 11.9 1H6.1C5.11166 1 4.40047 1.00039 3.84192 1.04602C3.28921 1.09118 2.93014 1.17814 2.63803 1.32698C2.07354 1.6146 1.6146 2.07354 1.32698 2.63803C1.17814 2.93014 1.09118 3.28921 1.04602 3.84192C1.00039 4.40047 1 5.11166 1 6.1V14.9C1 15.8883 1.00039 16.5995 1.04602 17.1581C1.09118 17.7108 1.17814 18.0699 1.32698 18.362C1.6146 18.9265 2.07354 19.3854 2.63803 19.673C2.93014 19.8219 3.28921 19.9088 3.84192 19.954C4.40047 19.9996 5.11166 20 6.1 20H11.2546C11.5308 20 11.7546 20.2239 11.7546 20.5C11.7546 20.7761 11.5308 21 11.2546 21H6.07754C5.11646 21 4.36451 21 3.76049 20.9507C3.14594 20.9004 2.64062 20.7967 2.18404 20.564C1.43139 20.1805 0.819467 19.5686 0.435974 18.816C0.203335 18.3594 0.0995563 17.8541 0.0493453 17.2395C-5.10737e-06 16.6355 -2.8465e-06 15.8835 4.41349e-08 14.9225V6.07756C-2.8465e-06 5.11647 -5.10737e-06 4.36451 0.0493453 3.76049C0.0995563 3.14594 0.203335 2.64062 0.435974 2.18404C0.819468 1.43139 1.43139 0.819468 2.18404 0.435974C2.64062 0.203335 3.14594 0.0995563 3.76049 0.0493453C4.36451 -5.10737e-06 5.11647 -2.8465e-06 6.07755 4.4135e-08Z" fill="#FE4848"/>
<path d="M4.5 6.5C4.5 6.22386 4.72386 6 5 6H9C9.27614 6 9.5 6.22386 9.5 6.5C9.5 6.77614 9.27614 7 9 7H5C4.72386 7 4.5 6.77614 4.5 6.5Z" fill="#FE4848"/>
<path d="M4.5 10.5C4.5 10.2239 4.72386 10 5 10H11.2546C11.5308 10 11.7546 10.2239 11.7546 10.5C11.7546 10.7761 11.5308 11 11.2546 11H5C4.72386 11 4.5 10.7761 4.5 10.5Z" fill="#FE4848"/>
<path d="M4.5 14.5C4.5 14.2239 4.72386 14 5 14H9.56189C9.83804 14 10.0619 14.2239 10.0619 14.5C10.0619 14.7761 9.83804 15 9.56189 15H5C4.72386 15 4.5 14.7761 4.5 14.5Z" fill="#FE4848"/>
<path d="M18.2071 15.4999L19.3535 14.3536C19.5488 14.1583 19.5488 13.8417 19.3535 13.6464C19.1582 13.4512 18.8417 13.4512 18.6464 13.6464L17.5 14.7928L16.3535 13.6464C16.1583 13.4511 15.8417 13.4511 15.6464 13.6464C15.4512 13.8417 15.4512 14.1582 15.6465 14.3535L16.7929 15.4999L15.6464 16.6464C15.4511 16.8417 15.4511 17.1583 15.6464 17.3536C15.8417 17.5488 16.1582 17.5488 16.3535 17.3536L17.5 16.207L18.6465 17.3535C18.8418 17.5488 19.1584 17.5488 19.3536 17.3535C19.5489 17.1582 19.5489 16.8416 19.3536 16.6464L18.2071 15.4999Z" fill="#FE4848"/>
<path fill-rule="evenodd" clip-rule="evenodd" d="M17.5 10C14.4624 10 12 12.4624 12 15.5C12 18.5376 14.4624 21 17.5 21C20.5376 21 23 18.5376 23 15.5C23 12.4624 20.5376 10 17.5 10ZM13 15.5C13 13.0147 15.0147 11 17.5 11C19.9853 11 22 13.0147 22 15.5C22 17.9853 19.9853 20 17.5 20C15.0147 20 13 17.9853 13 15.5Z" fill="#FE4848"/>
</svg>
