<svg width="24" height="24" viewBox="0 0 24 24" fill="none" xmlns="http://www.w3.org/2000/svg">
<path d="M7.4 19H17.2C17.5713 19 17.9274 18.8525 18.19 18.5899C18.4525 18.3274 18.6 17.9713 18.6 17.6V8.5L15.1 5H8.8C8.4287 5 8.0726 5.1475 7.81005 5.41005C7.5475 5.6726 7.4 6.0287 7.4 6.4V9.2M14.4 5V7.8C14.4 8.1713 14.5475 8.5274 14.8101 8.78995C15.0726 9.0525 15.4287 9.2 15.8 9.2H18.6M6 14.1H13M13 14.1L10.9 16.2M13 14.1L10.9 12" stroke="#666E6D" stroke-linecap="round" stroke-linejoin="round"/>
</svg>
