<svg width="16" height="16" viewBox="0 0 16 16" fill="none" xmlns="http://www.w3.org/2000/svg">
<path fill-rule="evenodd" clip-rule="evenodd" d="M12.0006 1.59651e-07H7.77846C7.23411 -5.56843e-06 6.79225 -1.02173e-05 6.43386 0.0292716C6.06396 0.059494 5.73484 0.123628 5.42901 0.279455C4.94657 0.52527 4.55434 0.917505 4.30852 1.39994C4.1527 1.70577 4.08856 2.03489 4.05834 2.40479C4.02906 2.76318 4.02906 3.20502 4.02907 3.74937V4.02907H3.74939C3.20504 4.02906 2.76318 4.02906 2.40479 4.05834C2.03489 4.08856 1.70577 4.1527 1.39994 4.30852C0.917505 4.55434 0.52527 4.94657 0.279455 5.42901C0.123628 5.73484 0.059494 6.06396 0.0292716 6.43386C-1.02173e-05 6.79225 -5.56843e-06 7.2341 1.59651e-07 7.77845V12.0006C-5.5684e-06 12.545 -1.03265e-05 12.9868 0.0292716 13.3452C0.059494 13.7151 0.123628 14.0442 0.279455 14.3501C0.52527 14.8325 0.917505 15.2247 1.39994 15.4705C1.70577 15.6264 2.03489 15.6905 2.40479 15.7207C2.76317 15.75 3.20499 15.75 3.74931 15.75H7.97156C8.51588 15.75 8.95776 15.75 9.31614 15.7207C9.68604 15.6905 10.0152 15.6264 10.321 15.4705C10.8034 15.2247 11.1957 14.8325 11.4415 14.3501C11.5973 14.0442 11.6614 13.7151 11.6917 13.3452C11.7209 12.9868 11.7209 12.545 11.7209 12.0007V11.7209H12.0006C12.5449 11.7209 12.9868 11.7209 13.3452 11.6917C13.7151 11.6614 14.0442 11.5973 14.3501 11.4415C14.8325 11.1957 15.2247 10.8034 15.4705 10.321C15.6264 10.0152 15.6905 9.68604 15.7207 9.31614C15.75 8.95776 15.75 8.51594 15.75 7.97162V3.74937C15.75 3.20505 15.75 2.76317 15.7207 2.40479C15.6905 2.03489 15.6264 1.70577 15.4705 1.39994C15.2247 0.917505 14.8325 0.52527 14.3501 0.279455C14.0442 0.123628 13.7151 0.059494 13.3452 0.0292716C12.9868 -1.03265e-05 12.545 -5.5684e-06 12.0006 1.59651e-07ZM10.6221 11.7209V11.9773C10.6221 12.5505 10.6217 12.9474 10.5965 13.2557C10.5718 13.5577 10.5261 13.7261 10.4624 13.8512C10.3219 14.1269 10.0978 14.351 9.82213 14.4915C9.69702 14.5552 9.52861 14.6009 9.22666 14.6255C8.91829 14.6507 8.52144 14.6512 7.94826 14.6512H3.77267C3.19949 14.6512 2.80264 14.6507 2.49427 14.6255C2.19232 14.6009 2.02391 14.5552 1.89881 14.4915C1.62313 14.351 1.39899 14.1269 1.25853 13.8512C1.19478 13.7261 1.14913 13.5577 1.12446 13.2557C1.09926 12.9474 1.09884 12.5505 1.09884 11.9773V7.80174C1.09884 7.22856 1.09926 6.83171 1.12446 6.52334C1.14913 6.22139 1.19478 6.05298 1.25853 5.92787C1.39899 5.6522 1.62313 5.42806 1.89881 5.2876C2.02391 5.22385 2.19232 5.1782 2.49427 5.15353C2.80264 5.12833 3.19949 5.12791 3.77267 5.12791H4.02907V7.97154C4.02906 8.51589 4.02906 8.95775 4.05834 9.31614C4.08856 9.68604 4.1527 10.0152 4.30852 10.321C4.55434 10.8034 4.94657 11.1957 5.42901 11.4415C5.73484 11.5973 6.06396 11.6614 6.43386 11.6917C6.79224 11.7209 7.23406 11.7209 7.77838 11.7209H10.6221ZM5.12791 7.94826C5.12791 8.52144 5.12833 8.91829 5.15353 9.22666C5.1782 9.52861 5.22385 9.69702 5.2876 9.82213C5.42806 10.0978 5.6522 10.3219 5.92787 10.4624C6.05298 10.5261 6.22139 10.5718 6.52334 10.5965C6.83171 10.6217 7.22856 10.6221 7.80174 10.6221H11.9773C12.5505 10.6221 12.9474 10.6217 13.2557 10.5965C13.5577 10.5718 13.7261 10.5261 13.8512 10.4624C14.1269 10.3219 14.351 10.0978 14.4915 9.82213C14.5552 9.69702 14.6009 9.52861 14.6255 9.22666C14.6507 8.91829 14.6512 8.52144 14.6512 7.94826V3.77267C14.6512 3.19949 14.6507 2.80264 14.6255 2.49427C14.6009 2.19232 14.5552 2.02391 14.4915 1.89881C14.351 1.62313 14.1269 1.39899 13.8512 1.25853C13.7261 1.19478 13.5577 1.14913 13.2557 1.12446C12.9474 1.09926 12.5505 1.09884 11.9773 1.09884H7.80174C7.22856 1.09884 6.83171 1.09926 6.52334 1.12446C6.22139 1.14913 6.05298 1.19478 5.92787 1.25853C5.6522 1.39899 5.42806 1.62313 5.2876 1.89881C5.22385 2.02391 5.1782 2.19232 5.15353 2.49427C5.12833 2.80264 5.12791 3.19949 5.12791 3.77267V7.94826Z" fill="#4A88EE"/>
</svg>
