<svg width="24" height="24" viewBox="0 0 24 24" fill="none" xmlns="http://www.w3.org/2000/svg">
<path d="M19.4899 7.5808C19.2599 7.12955 18.9002 6.76986 18.4504 6.5413C17.9413 6.28124 17.3824 6.28124 16.2703 6.28124H13.513C13.4038 6.28124 13.291 6.28124 13.2075 6.24974C13.1848 6.2329 13.1086 6.14352 13.0405 6.06441L12.6435 5.60216C12.4991 5.43367 12.4039 5.32159 12.2655 5.22636C12.1431 5.14212 12.0083 5.08058 11.8684 5.04395C11.7065 5 11.5673 5 11.3366 5H10.4106C9.29786 5 8.74038 5 8.23126 5.25933C7.78073 5.48862 7.42105 5.8483 7.19029 6.29956C6.93097 6.80869 6.93096 7.3669 6.93096 8.47892V12.8743C6.93096 13.987 6.93097 14.5452 7.19029 15.0544C7.42031 15.5056 7.78 15.8653 8.23052 16.0946C8.73965 16.3539 9.29786 16.3539 10.4099 16.3539H16.2703C17.3831 16.3539 17.9413 16.3539 18.4504 16.0946C18.901 15.8653 19.2607 15.5056 19.4907 15.0544C19.75 14.5452 19.75 13.987 19.75 12.8743V9.7609C19.75 8.64887 19.7493 8.09066 19.4899 7.5808ZM18.6504 12.8743C18.6504 13.7812 18.6504 14.2808 18.5112 14.5548C18.3874 14.798 18.1933 14.9914 17.9508 15.1152C17.6761 15.2551 17.1765 15.2551 16.2696 15.2551H10.4092C9.50224 15.2551 9.00264 15.2551 8.72866 15.1152C8.48912 14.9936 8.29059 14.7943 8.16826 14.5555C8.02834 14.2808 8.02834 13.7812 8.02834 12.8743V8.47892C8.02834 7.57201 8.02834 7.07241 8.16752 6.79843C8.28986 6.55888 8.48838 6.35963 8.72866 6.23802C9.00264 6.0981 9.50224 6.0981 10.4092 6.0981H11.3351C11.4428 6.0981 11.5549 6.0981 11.6406 6.13034C11.6633 6.14719 11.7395 6.23656 11.8076 6.31567L12.2047 6.77792C12.349 6.94641 12.4442 7.05849 12.5819 7.15299C12.7043 7.23723 12.8398 7.2995 12.9819 7.33686C13.1431 7.37935 13.2822 7.37935 13.5123 7.37935H16.2696C17.1765 7.37935 17.6761 7.37935 17.9508 7.51927C18.1933 7.64234 18.3867 7.83647 18.5105 8.07894C18.6504 8.35365 18.6504 8.85252 18.6504 9.75943V12.8728V12.8743ZM16.2323 17.5619C16.4755 17.7436 16.5245 18.0879 16.3429 18.3311C16.126 18.6212 15.8411 18.8607 15.5187 19.0248C15.0103 19.2842 14.4514 19.2842 13.3394 19.2842H7.47892C6.3669 19.2842 5.80869 19.2842 5.29956 19.0248C4.84903 18.7955 4.48935 18.4359 4.25933 17.9846C4 17.4755 4 16.9165 4 15.8045V11.4092C4 10.2971 4 9.73892 4.25933 9.22979C4.42415 8.90747 4.66297 8.6225 4.95233 8.40566C5.19553 8.22326 5.53984 8.27307 5.72151 8.51481C5.90392 8.75729 5.85484 9.10159 5.61236 9.284C5.45706 9.40121 5.3274 9.55505 5.23876 9.72793C5.09957 10.0019 5.09957 10.5015 5.09957 11.4084V15.8038C5.09957 16.7107 5.09957 17.2103 5.23949 17.485C5.36183 17.7245 5.56035 17.9231 5.7999 18.0447C6.0746 18.1846 6.57348 18.1846 7.48038 18.1846H13.3408C14.2478 18.1846 14.7474 18.1846 15.0221 18.0447C15.1957 17.9568 15.3488 17.8278 15.4645 17.6725C15.6462 17.4293 15.9898 17.3802 16.2337 17.5619H16.2323Z" fill="#898F8F"/>
</svg>
