<svg width="24" height="24" viewBox="0 0 24 24" fill="none" xmlns="http://www.w3.org/2000/svg">
<path d="M10.6417 6.48382C10.6803 6.07783 10.8689 5.70082 11.1706 5.42643C11.4723 5.15205 11.8654 5 12.2732 5C12.6811 5 13.0742 5.15205 13.3759 5.42643C13.6776 5.70082 13.8662 6.07783 13.9048 6.48382C13.928 6.74608 14.014 6.99889 14.1556 7.22086C14.2972 7.44282 14.4902 7.62741 14.7183 7.75899C14.9463 7.89057 15.2027 7.96527 15.4657 7.97677C15.7288 7.98827 15.9907 7.93623 16.2294 7.82505C16.5999 7.6568 17.0199 7.63246 17.4074 7.75675C17.795 7.88105 18.1224 8.14509 18.326 8.49749C18.5296 8.84989 18.5948 9.26544 18.5089 9.66326C18.423 10.0611 18.1921 10.4127 17.8613 10.6497C17.6458 10.8009 17.4699 11.0017 17.3485 11.2352C17.2271 11.4688 17.1637 11.7281 17.1637 11.9913C17.1637 12.2545 17.2271 12.5138 17.3485 12.7473C17.4699 12.9809 17.6458 13.1817 17.8613 13.3329C18.1921 13.5699 18.423 13.9215 18.5089 14.3193C18.5948 14.7171 18.5296 15.1327 18.326 15.4851C18.1224 15.8375 17.795 16.1015 17.4074 16.2258C17.0199 16.3501 16.5999 16.3258 16.2294 16.1575C15.9907 16.0463 15.7288 15.9943 15.4657 16.0058C15.2027 16.0173 14.9463 16.092 14.7183 16.2236C14.4902 16.3552 14.2972 16.5397 14.1556 16.7617C14.014 16.9837 13.928 17.2365 13.9048 17.4988C13.8662 17.9047 13.6776 18.2818 13.3759 18.5561C13.0742 18.8305 12.6811 18.9826 12.2732 18.9826C11.8654 18.9826 11.4723 18.8305 11.1706 18.5561C10.8689 18.2818 10.6803 17.9047 10.6417 17.4988C10.6185 17.2364 10.5325 16.9835 10.3909 16.7614C10.2492 16.5394 10.0562 16.3548 9.82802 16.2232C9.59987 16.0916 9.34338 16.0169 9.08025 16.0055C8.81712 15.994 8.55512 16.0462 8.31642 16.1575C7.94584 16.3258 7.52592 16.3501 7.13838 16.2258C6.75084 16.1015 6.42341 15.8375 6.21981 15.4851C6.01622 15.1327 5.95103 14.7171 6.03693 14.3193C6.12282 13.9215 6.35367 13.5699 6.68453 13.3329C6.89998 13.1817 7.07585 12.9809 7.19727 12.7473C7.31869 12.5138 7.38208 12.2545 7.38208 11.9913C7.38208 11.7281 7.31869 11.4688 7.19727 11.2352C7.07585 11.0017 6.89998 10.8009 6.68453 10.6497C6.35413 10.4126 6.1237 10.0611 6.03801 9.66355C5.95231 9.266 6.01749 8.85079 6.22086 8.49862C6.42424 8.14645 6.75128 7.88247 7.13844 7.75798C7.5256 7.6335 7.94521 7.6574 8.31572 7.82505C8.55439 7.93623 8.81632 7.98827 9.07935 7.97677C9.34239 7.96527 9.59878 7.89057 9.82683 7.75899C10.0549 7.62741 10.2479 7.44282 10.3895 7.22086C10.5311 6.99889 10.6171 6.74608 10.6403 6.48382M14.374 11.9916C14.374 13.1521 13.4333 14.0928 12.2729 14.0928C11.1125 14.0928 10.1717 13.1521 10.1717 11.9916C10.1717 10.8312 11.1125 9.89048 12.2729 9.89048C13.4333 9.89048 14.374 10.8312 14.374 11.9916Z" stroke="#666E6D" stroke-linecap="round" stroke-linejoin="round"/>
</svg>
