<svg width="18" height="18" viewBox="0 0 18 18" fill="none" xmlns="http://www.w3.org/2000/svg">
<path d="M7 4L6.484 5.394C5.808 7.222 5.47 8.136 4.803 8.803C4.136 9.47 3.222 9.808 1.394 10.484L0 11L1.394 11.516C3.222 12.192 4.136 12.531 4.803 13.197C5.47 13.863 5.808 14.778 6.484 16.606L7 18L7.516 16.606C8.192 14.778 8.531 13.864 9.197 13.197C9.863 12.53 10.778 12.192 12.606 11.516L14 11L12.606 10.484C10.778 9.808 9.864 9.47 9.197 8.803C8.53 8.136 8.192 7.222 7.516 5.394L7 4ZM15 0L14.779 0.597C14.489 1.381 14.344 1.773 14.059 2.058C13.773 2.344 13.381 2.489 12.597 2.778L12 3L12.598 3.221C13.381 3.511 13.773 3.656 14.058 3.941C14.344 4.227 14.489 4.619 14.778 5.403L15 6L15.221 5.403C15.511 4.619 15.656 4.227 15.941 3.942C16.227 3.656 16.619 3.511 17.403 3.222L18 3L17.402 2.779C16.619 2.489 16.227 2.344 15.942 2.059C15.656 1.773 15.511 1.381 15.222 0.597L15 0Z" fill="#4A88EE"/>
</svg>
