<svg width="14" height="14" viewBox="0 0 14 14" fill="none" xmlns="http://www.w3.org/2000/svg">
<path d="M7 0.5C7.13261 0.5 7.25975 0.552716 7.35352 0.646484C7.44728 0.740253 7.5 0.867392 7.5 1V6.5H13C13.1326 6.5 13.2597 6.55272 13.3535 6.64648C13.4473 6.74025 13.5 6.86739 13.5 7C13.5 7.13261 13.4473 7.25975 13.3535 7.35352C13.2597 7.44728 13.1326 7.5 13 7.5H7.5V13C7.5 13.1326 7.44728 13.2597 7.35352 13.3535C7.25975 13.4473 7.13261 13.5 7 13.5C6.86739 13.5 6.74025 13.4473 6.64648 13.3535C6.55272 13.2597 6.5 13.1326 6.5 13V7.5H1C0.867392 7.5 0.740253 7.44728 0.646484 7.35352C0.552716 7.25975 0.5 7.13261 0.5 7C0.5 6.86739 0.552716 6.74025 0.646484 6.64648C0.740253 6.55272 0.867392 6.5 1 6.5H6.5V1C6.5 0.867392 6.55272 0.740253 6.64648 0.646484C6.74025 0.552716 6.86739 0.5 7 0.5Z" fill="#898F8F" stroke="#F3F4F4"/>
</svg>
