<svg width="14" height="14" viewBox="0 0 14 14" fill="none" xmlns="http://www.w3.org/2000/svg">
<path d="M8.775 2.27527L11.375 4.87528M12.7881 3.45307C13.1318 3.1095 13.3249 2.64347 13.3249 2.15752C13.325 1.67157 13.132 1.2055 12.7884 0.861837C12.4449 0.518175 11.9788 0.325073 11.4929 0.325012C11.0069 0.324951 10.5409 0.517936 10.1972 0.861512L1.52227 9.5384C1.37136 9.68887 1.25975 9.87415 1.19727 10.0779L0.33862 12.9067C0.321821 12.9629 0.320552 13.0226 0.334948 13.0795C0.349344 13.1364 0.378868 13.1883 0.420388 13.2298C0.461907 13.2712 0.513874 13.3007 0.570774 13.315C0.627673 13.3293 0.687384 13.3279 0.743571 13.311L3.57303 12.453C3.77659 12.3911 3.96185 12.2802 4.11254 12.13L12.7881 3.45307Z" stroke="#666E6D" stroke-width="0.650003" stroke-linecap="round" stroke-linejoin="round"/>
</svg>
